<?xml version="1.0" standalone="no"?>
<!DOCTYPE svg PUBLIC "-//W3C//DTD SVG 20010904//EN"
 "http://www.w3.org/TR/2001/REC-SVG-20010904/DTD/svg10.dtd">
<svg version="1.0" xmlns="http://www.w3.org/2000/svg"
 width="225.000000pt" height="225.000000pt" viewBox="0 0 225.000000 225.000000"
 preserveAspectRatio="xMidYMid meet">
<metadata>
Created by potrace 1.14, written by Peter Selinger 2001-2017
</metadata>
<g transform="translate(0.000000,225.000000) scale(0.100000,-0.100000)"
fill="#000000" stroke="none">
<path d="M1645 1525 c-30 -14 -184 -51 -240 -58 -16 -2 -3 -4 30 -5 33 0 84 7
115 17 30 10 58 17 63 14 15 -9 6 -22 -22 -28 -16 -3 -35 -13 -42 -21 -7 -9
-32 -14 -73 -14 -33 -1 -88 -7 -120 -15 -32 -8 -71 -11 -87 -8 -15 3 -35 0
-46 -6 -14 -8 -4 -11 47 -11 97 -1 53 -19 -65 -27 l-95 -6 0 -190 0 -190 148
7 c202 10 351 23 521 47 141 19 292 46 295 51 1 2 10 15 19 30 22 35 21 41 -3
28 -31 -16 -24 0 17 42 33 34 35 38 16 38 -12 0 -29 3 -38 7 -14 5 -16 2 -11
-15 6 -17 1 -24 -24 -37 -37 -19 -50 -13 -27 13 10 10 17 24 17 30 0 6 25 36
56 67 59 59 65 74 20 54 -42 -20 -42 -2 0 36 41 36 33 45 -17 20 -54 -28 -66
0 -18 42 59 53 56 58 -33 54 -63 -2 -79 0 -73 9 6 10 -3 11 -43 6 -41 -5 -51
-4 -46 7 4 11 -7 12 -58 6 -35 -4 -67 -4 -72 1 -5 5 -22 6 -37 3 -18 -3 -29
-1 -29 6 0 14 -7 13 -45 -4z"/>
<path d="M700 1292 c-26 -45 -22 -44 -95 -26 -33 8 -32 -6 4 -40 l30 -28 -25
-39 c-13 -21 -24 -41 -24 -44 0 -2 21 4 48 14 l47 19 39 -36 38 -37 -7 50 -6
51 48 21 48 20 -52 8 c-57 8 -53 2 -67 95 -1 8 -13 -4 -26 -28z"/>
<path d="M171 1054 c18 -21 108 -82 192 -128 66 -37 83 -56 51 -56 -40 0 -208
76 -250 113 -37 32 -44 36 -44 19 0 -45 114 -164 228 -237 100 -64 261 -139
352 -165 99 -27 248 -50 333 -50 l67 0 0 160 c0 121 -3 160 -12 160 -7 0 -44
-7 -83 -15 -38 -8 -87 -15 -108 -15 -57 0 -204 29 -267 52 -30 11 -93 33 -139
49 -46 16 -115 47 -152 69 -38 22 -91 45 -120 50 -66 13 -64 13 -48 -6z"/>
<path d="M400 1010 c30 -17 57 -34 60 -39 3 -4 19 -10 35 -13 17 -3 71 -18
120 -33 80 -25 108 -28 250 -31 127 -2 165 0 182 12 12 7 29 14 38 14 10 0 15
10 15 28 l0 29 -179 7 c-159 6 -503 38 -556 52 -11 3 5 -9 35 -26z"/>
<path d="M1474 898 l-9 -52 -60 -11 -60 -11 53 -19 c56 -21 57 -23 36 -97 -7
-22 9 -23 26 -3 7 9 25 25 40 35 26 19 30 19 74 4 26 -9 50 -14 53 -11 3 3 -7
21 -21 40 l-26 33 40 39 c22 21 38 40 37 41 -2 2 -27 -3 -57 -11 -30 -8 -57
-11 -61 -7 -3 4 -17 24 -31 45 l-25 37 -9 -52z"/>
</g>
</svg>
